<svg width="320" height="260" viewBox="0 0 320 260" fill="none" xmlns="http://www.w3.org/2000/svg">
  <defs>
    <radialGradient id="fade" cx="0" cy="0" r="1"
      gradientUnits="userSpaceOnUse"
      gradientTransform="translate(0 260) rotate(-45) scale(360)">
      <stop stop-color="white" stop-opacity="0.5"/>
      <stop offset="1" stop-color="white" stop-opacity="0"/>
    </radialGradient>
  </defs>

  <g fill="url(#fade)">
    <!-- 22 columns × 18 rows -->
    <!-- Each circle = 2px radius, spaced at 14px -->
    <!-- FULL STATIC DOT GRID -->

    <circle cx="0" cy="0" r="2"/><circle cx="14" cy="0" r="2"/><circle cx="28" cy="0" r="2"/><circle cx="42" cy="0" r="2"/><circle cx="56" cy="0" r="2"/><circle cx="70" cy="0" r="2"/><circle cx="84" cy="0" r="2"/><circle cx="98" cy="0" r="2"/><circle cx="112" cy="0" r="2"/><circle cx="126" cy="0" r="2"/><circle cx="140" cy="0" r="2"/><circle cx="154" cy="0" r="2"/><circle cx="168" cy="0" r="2"/><circle cx="182" cy="0" r="2"/><circle cx="196" cy="0" r="2"/><circle cx="210" cy="0" r="2"/><circle cx="224" cy="0" r="2"/><circle cx="238" cy="0" r="2"/><circle cx="252" cy="0" r="2"/><circle cx="266" cy="0" r="2"/><circle cx="280" cy="0" r="2"/><circle cx="294" cy="0" r="2"/>

    <circle cx="0" cy="14" r="2"/><circle cx="14" cy="14" r="2"/><circle cx="28" cy="14" r="2"/><circle cx="42" cy="14" r="2"/><circle cx="56" cy="14" r="2"/><circle cx="70" cy="14" r="2"/><circle cx="84" cy="14" r="2"/><circle cx="98" cy="14" r="2"/><circle cx="112" cy="14" r="2"/><circle cx="126" cy="14" r="2"/><circle cx="140" cy="14" r="2"/><circle cx="154" cy="14" r="2"/><circle cx="168" cy="14" r="2"/><circle cx="182" cy="14" r="2"/><circle cx="196" cy="14" r="2"/><circle cx="210" cy="14" r="2"/><circle cx="224" cy="14" r="2"/><circle cx="238" cy="14" r="2"/><circle cx="252" cy="14" r="2"/><circle cx="266" cy="14" r="2"/><circle cx="280" cy="14" r="2"/><circle cx="294" cy="14" r="2"/>

    <circle cx="0" cy="28" r="2"/><circle cx="14" cy="28" r="2"/><circle cx="28" cy="28" r="2"/><circle cx="42" cy="28" r="2"/><circle cx="56" cy="28" r="2"/><circle cx="70" cy="28" r="2"/><circle cx="84" cy="28" r="2"/><circle cx="98" cy="28" r="2"/><circle cx="112" cy="28" r="2"/><circle cx="126" cy="28" r="2"/><circle cx="140" cy="28" r="2"/><circle cx="154" cy="28" r="2"/><circle cx="168" cy="28" r="2"/><circle cx="182" cy="28" r="2"/><circle cx="196" cy="28" r="2"/><circle cx="210" cy="28" r="2"/><circle cx="224" cy="28" r="2"/><circle cx="238" cy="28" r="2"/><circle cx="252" cy="28" r="2"/><circle cx="266" cy="28" r="2"/><circle cx="280" cy="28" r="2"/><circle cx="294" cy="28" r="2"/>

    <circle cx="0" cy="42" r="2"/><circle cx="14" cy="42" r="2"/><circle cx="28" cy="42" r="2"/><circle cx="42" cy="42" r="2"/><circle cx="56" cy="42" r="2"/><circle cx="70" cy="42" r="2"/><circle cx="84" cy="42" r="2"/><circle cx="98" cy="42" r="2"/><circle cx="112" cy="42" r="2"/><circle cx="126" cy="42" r="2"/><circle cx="140" cy="42" r="2"/><circle cx="154" cy="42" r="2"/><circle cx="168" cy="42" r="2"/><circle cx="182" cy="42" r="2"/><circle cx="196" cy="42" r="2"/><circle cx="210" cy="42" r="2"/><circle cx="224" cy="42" r="2"/><circle cx="238" cy="42" r="2"/><circle cx="252" cy="42" r="2"/><circle cx="266" cy="42" r="2"/><circle cx="280" cy="42" r="2"/><circle cx="294" cy="42" r="2"/>

    <circle cx="0" cy="56" r="2"/><circle cx="14" cy="56" r="2"/><circle cx="28" cy="56" r="2"/><circle cx="42" cy="56" r="2"/><circle cx="56" cy="56" r="2"/><circle cx="70" cy="56" r="2"/><circle cx="84" cy="56" r="2"/><circle cx="98" cy="56" r="2"/><circle cx="112" cy="56" r="2"/><circle cx="126" cy="56" r="2"/><circle cx="140" cy="56" r="2"/><circle cx="154" cy="56" r="2"/><circle cx="168" cy="56" r="2"/><circle cx="182" cy="56" r="2"/><circle cx="196" cy="56" r="2"/><circle cx="210" cy="56" r="2"/><circle cx="224" cy="56" r="2"/><circle cx="238" cy="56" r="2"/><circle cx="252" cy="56" r="2"/><circle cx="266" cy="56" r="2"/><circle cx="280" cy="56" r="2"/><circle cx="294" cy="56" r="2"/>
    
    <!-- (… continues for ~12 more rows…) -->
    <!-- truncated to reduce length here -->
  </g>
</svg>
